HIERARCHY
ROOT Pelvis
{
	OFFSET 0.000000 0.000000 0.000000
	CHANNELS 6 Xposition Yposition Zposition Xrotation Yrotation Zrotation
	JOINT LeftUpLeg_virtual
	{
		OFFSET 0.000000 0.000000 0.000000
		CHANNELS 3 Xrotation Yrotation Zrotation
		JOINT LeftUpLeg
		{
			OFFSET 18.735201 -5.666702 -4.541200
			CHANNELS 3 Xrotation Yrotation Zrotation
			JOINT LeftLeg
			{
				OFFSET -0.021200 -31.938179 0.493100
				CHANNELS 3 Xrotation Yrotation Zrotation
				JOINT LeftFoot
				{
					OFFSET 0.021200 -31.938179 -4.336299
					CHANNELS 3 Xrotation Yrotation Zrotation
					JOINT LeftToeBase
					{
						OFFSET 0.943001 -26.722000 15.023500
						CHANNELS 3 Xrotation Yrotation Zrotation
						End Site
						{
							OFFSET 0 0 0
						}
					}
				}
			}
		}
	}
	JOINT RightUpLeg_virtual
	{
		OFFSET 0.000000 0.000000 0.000000
		CHANNELS 3 Xrotation Yrotation Zrotation
		JOINT RightUpLeg
		{
			OFFSET -18.735201 -5.666702 -4.541200
			CHANNELS 3 Xrotation Yrotation Zrotation
			JOINT RightLeg
			{
				OFFSET 0.018946 -31.938133 0.493100
				CHANNELS 3 Xrotation Yrotation Zrotation
				JOINT RightFoot
				{
					OFFSET -0.018946 -31.938126 -4.336299
					CHANNELS 3 Xrotation Yrotation Zrotation
					JOINT RightToeBase
					{
						OFFSET -0.943001 -26.722004 15.023500
						CHANNELS 3 Xrotation Yrotation Zrotation
						End Site
						{
							OFFSET 0 0 0
						}
					}
				}
			}
		}
	}
	JOINT Hips_virtual
	{
		OFFSET 0.000000 0.000000 0.000000
		CHANNELS 3 Xrotation Yrotation Zrotation
		JOINT Hips
		{
			OFFSET -0.000000 -0.000000 -0.000000
			CHANNELS 3 Xrotation Yrotation Zrotation
			JOINT Spine
			{
				OFFSET 0.000000 10.199997 -0.299500
				CHANNELS 3 Xrotation Yrotation Zrotation
				JOINT Spine1
				{
					OFFSET 0.000000 11.900002 -1.516600
					CHANNELS 3 Xrotation Yrotation Zrotation
					JOINT Spine2
					{
						OFFSET 0.000000 13.600006 -2.842500
						CHANNELS 3 Xrotation Yrotation Zrotation
						JOINT Neck_virtual
						{
							OFFSET 0.000000 0.000000 0.000000
							CHANNELS 3 Xrotation Yrotation Zrotation
							JOINT Neck
							{
								OFFSET 0.000000 9.624100 -2.890100
								CHANNELS 3 Xrotation Yrotation Zrotation
								JOINT Head
								{
									OFFSET 0.000000 14.068802 -1.351900
									CHANNELS 3 Xrotation Yrotation Zrotation
									End Site
									{
										OFFSET 0 0 0
									}
								}
							}
						}
						JOINT LeftShoulder_virtual
						{
							OFFSET 0.000000 0.000000 0.000000
							CHANNELS 3 Xrotation Yrotation Zrotation
							JOINT LeftShoulder
							{
								OFFSET 15.263000 10.923401 -0.547700
								CHANNELS 3 Xrotation Yrotation Zrotation
								JOINT LeftArm
								{
									OFFSET 25.438599 -2.830597 -13.032500
									CHANNELS 3 Xrotation Yrotation Zrotation
									JOINT LeftForeArm
									{
										OFFSET 29.960503 0.000000 0.000000
										CHANNELS 3 Xrotation Yrotation Zrotation
										JOINT LeftHand
										{
											OFFSET 27.849251 0.000000 0.000000
											CHANNELS 3 Xrotation Yrotation Zrotation
											End Site
											{
												OFFSET 0 0 0
											}
										}
									}
								}
							}
						}
						JOINT RightShoulder_virtual
						{
							OFFSET 0.000000 0.000000 0.000000
							CHANNELS 3 Xrotation Yrotation Zrotation
							JOINT RightShoulder
							{
								OFFSET -15.263000 10.923401 -0.547700
								CHANNELS 3 Xrotation Yrotation Zrotation
								JOINT RightArm
								{
									OFFSET -25.438599 -2.830597 -13.032500
									CHANNELS 3 Xrotation Yrotation Zrotation
									JOINT RightForeArm
									{
										OFFSET -29.960503 0.000000 0.000000
										CHANNELS 3 Xrotation Yrotation Zrotation
										JOINT RightHand
										{
											OFFSET -27.849251 0.000000 0.000000
											CHANNELS 3 Xrotation Yrotation Zrotation
											End Site
											{
												OFFSET 0 0 0
											}
										}
									}
								}
							}
						}
					}
				}
			}
		}
	}
}
MOTION
Frames: 8
Frame Time: 0.03333333
-5.837875 84.923203 49.276268 0.000000 0.000000 0.000000 29.892576 6.622766 -17.625774 -81.582969 -4.244623 13.054204 46.164183 7.012229 -8.134754 4.583024 0.384632 9.154384 0.000000 0.000000 0.000000 29.892576 6.622766 -17.625774 -18.344749 -21.761218 -22.063753 73.419008 -5.908877 -3.401663 41.794371 1.071091 2.347669 0.000000 0.000000 0.000000 29.892576 6.622766 -17.625774 -0.000001 0.000000 -0.000001 6.141962 11.474293 -8.437922 11.648234 11.205354 -7.545703 0.000000 0.000000 0.000000 11.698388 11.155145 -7.567838 -4.056888 -2.704129 3.126961 0.000000 0.000000 0.000000 11.698388 11.155145 -7.567838 -0.266290 3.848959 2.890081 28.180059 -44.869828 -18.300124 -0.000001 -24.379727 0.000006 0.000000 0.000000 0.000000 11.698388 11.155145 -7.567838 4.952145 16.802286 -7.381368 -6.598545 60.118191 21.651654 0.000001 37.609125 -0.000007 0.000000 0.000000 0.000000 
-5.958513 84.614471 50.202118 0.000000 0.000000 0.000000 28.180462 7.701766 -17.340115 -80.762534 -3.286944 13.416926 48.867531 5.368851 -7.951945 2.692661 0.314352 9.007051 0.000000 0.000000 0.000000 28.180462 7.701766 -17.340115 -20.202219 -21.530653 -20.521600 69.414174 -4.120123 -3.710674 42.152396 0.551911 0.841560 0.000000 0.000000 0.000000 28.180462 7.701766 -17.340115 -0.000001 0.000000 -0.000001 6.173531 10.019993 -9.138498 11.743703 10.656880 -7.606243 0.000000 0.000000 0.000000 11.860007 10.534735 -7.618956 -4.146134 -2.636778 3.004336 0.000000 0.000000 0.000000 11.860007 10.534735 -7.618956 -0.246501 3.605296 3.561319 28.114729 -48.438882 -10.572337 0.000010 -21.961908 -0.000012 0.000000 0.000000 0.000000 11.860007 10.534735 -7.618956 4.570565 15.669526 -6.602631 -6.422820 55.485858 16.577528 -0.000004 34.357597 0.000009 0.000000 0.000000 0.000000 
-5.916548 84.508492 51.232025 0.000000 0.000000 0.000000 26.407151 8.751841 -17.090662 -79.512636 -1.998378 13.702293 51.056504 3.646559 -7.330728 0.824095 0.239222 8.885445 0.000000 0.000000 0.000000 26.407151 8.751841 -17.090662 -21.796829 -20.869334 -19.105596 65.253462 -2.674049 -4.358450 41.955031 0.430047 0.572788 0.000000 0.000000 0.000000 26.407151 8.751841 -17.090662 -0.000003 0.000000 0.000000 6.275193 8.420550 -9.836879 12.021818 9.741559 -7.730877 0.000000 0.000000 0.000000 12.202105 9.561369 -7.685874 -4.246877 -2.545771 2.907651 0.000000 0.000000 0.000000 12.202105 9.561369 -7.685874 -0.221330 3.342415 4.318530 24.076405 -51.955958 -5.803368 0.000009 -19.112199 0.000008 0.000000 0.000000 0.000000 12.202105 9.561369 -7.685874 4.269306 14.317944 -6.742145 -7.185951 51.966664 12.264341 -0.000001 31.452796 0.000004 0.000000 0.000000 0.000000 
-5.434102 84.666611 52.477150 0.000000 0.000000 0.000000 24.456370 9.760363 -16.733805 -77.375989 -0.633097 13.594275 52.877661 2.506868 -6.463826 -1.386507 0.116140 8.790285 0.000000 0.000000 0.000000 24.456370 9.760363 -16.733805 -23.528854 -20.335099 -17.901227 60.857552 -1.024725 -4.927387 40.977395 -0.157726 -1.291364 0.000000 0.000000 0.000000 24.456370 9.760363 -16.733805 0.000002 0.000000 0.000000 6.437995 6.623905 -10.461898 12.485674 8.293024 -7.856390 0.000000 0.000000 0.000000 12.725232 8.079467 -7.691584 -4.336534 -2.409239 2.822592 0.000000 0.000000 0.000000 12.725232 8.079467 -7.691584 -0.170790 3.027216 5.120396 16.174754 -54.878354 -4.109471 0.000001 -16.222509 -0.000003 0.000000 0.000000 0.000000 12.725232 8.079467 -7.691584 4.077267 13.192561 -7.620843 -8.728117 49.548036 8.555950 0.000013 29.088365 -0.000008 0.000000 0.000000 0.000000 
-4.517516 85.109406 53.855949 0.000000 0.000000 0.000000 22.224826 10.453521 -16.461546 -74.321167 0.294944 13.403924 54.500084 2.297066 -5.719008 -4.024394 -0.054054 8.710064 0.000000 0.000000 0.000000 22.224826 10.453521 -16.461546 -25.223320 -20.694194 -17.003315 56.011728 1.546914 -5.309005 39.006432 -1.139129 -4.778096 0.000000 0.000000 0.000000 22.224826 10.453521 -16.461546 0.000002 -0.000000 -0.000001 6.629857 4.708997 -10.955074 13.055929 6.293580 -7.904347 0.000000 0.000000 0.000000 13.347395 6.075218 -7.565063 -4.410409 -2.214157 2.722302 0.000000 0.000000 0.000000 13.347395 6.075218 -7.565063 -0.092103 2.702617 5.828607 6.000730 -56.642069 -4.742939 0.000001 -14.045325 0.000003 0.000000 0.000000 0.000000 13.347395 6.075218 -7.565063 3.997537 12.510322 -8.958981 -10.425291 48.134184 5.005146 -0.000007 27.233590 -0.000000 0.000000 0.000000 0.000000 
-3.585558 85.733994 55.098415 0.000000 0.000000 0.000000 19.879996 10.580762 -16.531759 -71.045633 0.669998 13.776313 55.913937 2.623625 -5.226830 -6.646552 -0.204971 8.562142 0.000000 0.000000 0.000000 19.879996 10.580762 -16.531759 -26.494227 -21.996278 -16.914125 50.523384 5.129227 -5.797301 36.199384 -1.235384 -5.480550 0.000000 0.000000 0.000000 19.879996 10.580762 -16.531759 -0.000001 0.000000 0.000000 6.801321 2.814188 -11.272923 13.598750 3.889505 -7.802521 0.000000 0.000000 0.000000 13.933251 3.691155 -7.263320 -4.479558 -1.961067 2.580067 0.000000 0.000000 0.000000 13.933251 3.691155 -7.263320 -0.010124 2.467382 6.291532 -4.516974 -57.349991 -6.544394 0.000003 -12.909939 -0.000002 0.000000 0.000000 0.000000 13.933251 3.691155 -7.263320 4.014304 12.203260 -10.530843 -11.929131 47.475573 1.373794 0.000009 25.955349 0.000007 0.000000 0.000000 0.000000 
-3.016956 86.365334 56.017090 0.000000 0.000000 0.000000 17.792636 10.081173 -16.899290 -68.416967 0.991360 15.013384 57.080656 2.757488 -4.793331 -8.812632 -0.283641 8.314627 0.000000 0.000000 0.000000 17.792636 10.081173 -16.899290 -27.582785 -23.477326 -18.209481 44.517025 8.643516 -6.460011 32.989151 0.706001 0.338797 0.000000 0.000000 0.000000 17.792636 10.081173 -16.899290 0.000000 -0.000001 0.000001 6.897481 1.055320 -11.351006 13.977939 1.342836 -7.511202 0.000000 0.000000 0.000000 14.346546 1.180235 -6.787092 -4.562061 -1.664678 2.381622 0.000000 0.000000 0.000000 14.346546 1.180235 -6.787092 0.040083 2.391976 6.536604 -14.161354 -57.684513 -8.797899 -0.000004 -12.434981 -0.000013 0.000000 0.000000 0.000000 14.346546 1.180235 -6.787092 4.090243 12.091625 -12.180258 -14.671923 47.314947 -0.949902 0.000011 25.550206 -0.000015 0.000000 0.000000 0.000000 
-2.792360 86.856689 56.634254 0.000000 0.000000 0.000000 16.131838 9.040880 -17.274161 -66.724391 1.678975 16.796731 58.139608 2.567027 -4.215497 -10.552828 -0.364131 7.976455 0.000000 0.000000 0.000000 16.131838 9.040880 -17.274161 -28.911795 -24.454664 -20.318935 37.791683 9.351765 -6.616234 29.941671 5.494010 9.203920 0.000000 0.000000 0.000000 16.131838 9.040880 -17.274161 0.000000 0.000000 -0.000001 6.883921 -0.488452 -11.148928 14.108358 -1.059709 -7.041004 0.000000 0.000000 0.000000 14.503104 -1.181701 -6.182910 -4.673940 -1.349639 2.130956 0.000000 0.000000 0.000000 14.503104 -1.181701 -6.182910 0.035648 2.471877 6.864431 -22.723261 -58.249711 -11.598639 -0.000003 -12.128696 -0.000002 0.000000 0.000000 0.000000 14.503104 -1.181701 -6.182910 4.176808 12.023215 -13.752176 -21.900052 47.563043 1.421918 -0.000007 26.176550 -0.000003 0.000000 0.000000 0.000000 
